<?xml version="1.0" standalone="no"?><!DOCTYPE svg PUBLIC "-//W3C//DTD SVG 1.1//EN" "http://www.w3.org/Graphics/SVG/1.1/DTD/svg11.dtd"><svg t="1700662317665" class="icon" viewBox="0 0 1034 1024" version="1.1" xmlns="http://www.w3.org/2000/svg" p-id="17831" xmlns:xlink="http://www.w3.org/1999/xlink" width="129.25" height="128"><path d="M735.857778 759.523556H153.543111a153.6 153.6 0 0 1-153.6-153.6v-374.044445a153.6 153.6 0 0 1 153.6-153.6h582.314667a154.908444 154.908444 0 0 1 137.557333 85.333333 30.72 30.72 0 0 1-55.011555 27.363556 93.013333 93.013333 0 0 0-82.545778-51.2H153.543111a92.216889 92.216889 0 0 0-92.103111 92.103111v374.044445a92.216889 92.216889 0 0 0 92.103111 92.103111h582.314667a92.216889 92.216889 0 0 0 84.878222-56.433778 30.72 30.72 0 0 1 56.547556 24.007111 153.6 153.6 0 0 1-141.425778 93.923556z" fill="#0A71EF" p-id="17832"></path><path d="M413.980444 731.761778m30.72 0l-0.056888 0q30.72 0 30.72 30.72l0 144.668444q0 30.72-30.72 30.72l0.056888 0q-30.72 0-30.72-30.72l0-144.668444q0-30.72 30.72-30.72Z" fill="#0A71EF" p-id="17833"></path><path d="M199.054222 884.110222m30.72 0l429.852445 0q30.72 0 30.72 30.72l0-0.056889q0 30.72-30.72 30.72l-429.852445 0q-30.72 0-30.72-30.72l0 0.056889q0-30.72 30.72-30.72Z" fill="#0A71EF" p-id="17834"></path><path d="M199.054222 299.576889m30.72 0l240.355556 0q30.72 0 30.72 30.72l0-0.056889q0 30.72-30.72 30.72l-240.355556 0q-30.72 0-30.72-30.72l0 0.056889q0-30.72 30.72-30.72Z" fill="#89BAF7" p-id="17835"></path><path d="M199.054222 484.124444m30.72 0l119.068445 0q30.72 0 30.72 30.72l0-0.056888q0 30.72-30.72 30.72l-119.068445 0q-30.72 0-30.72-30.72l0 0.056888q0-30.72 30.72-30.72Z" fill="#89BAF7" p-id="17836"></path><path d="M1018.709333 428.088889l-83.285333 150.983111a33.678222 33.678222 0 0 1-29.468444 17.521778h-165.205334a33.678222 33.678222 0 0 1-29.468444-17.521778l-83.285334-150.983111a34.133333 34.133333 0 0 1 0-33.166222l83.285334-150.983111a33.678222 33.678222 0 0 1 29.468444-17.521778h165.376a33.678222 33.678222 0 0 1 29.468445 17.521778l83.285333 150.983111a34.133333 34.133333 0 0 1-0.170667 33.166222z m-25.543111-14.222222a4.892444 4.892444 0 0 0 0-4.721778l-83.114666-150.983111a4.778667 4.778667 0 0 0-4.209778-2.503111h-164.977778a4.778667 4.778667 0 0 0-4.209778 2.503111l-83.114666 151.210666a4.892444 4.892444 0 0 0 0 4.721778l83.114666 150.983111a4.778667 4.778667 0 0 0 4.209778 2.503111h164.977778a4.778667 4.778667 0 0 0 4.209778-2.503111z m-171.121778 73.955555a77.937778 77.937778 0 1 1 77.937778-77.937778 77.937778 77.937778 0 0 1-77.824 77.710223z m0-29.240889a48.696889 48.696889 0 1 0-48.696888-48.696889 48.696889 48.696889 0 0 0 48.810666 48.469334z" fill="#FF7733" p-id="17837"></path></svg>